<svg width="24" height="20" viewBox="0 0 24 20" fill="none" xmlns="http://www.w3.org/2000/svg">
<path fill-rule="evenodd" clip-rule="evenodd" d="M2.99995 1.79745C2.42319 1.79745 1.79995 2.35545 1.79995 3.24745V16.7474C1.79995 17.6394 2.42319 18.1974 2.99995 18.1974H21C21.5767 18.1974 22.2 17.6394 22.2 16.7474V13.8475H17C14.8737 13.8475 13.15 12.1237 13.15 9.99745C13.15 7.87116 14.8737 6.14745 17 6.14745H22.2V3.24745C22.2 2.35545 21.5767 1.79745 21 1.79745H2.99995ZM23.7999 6.14745V3.24745C23.7999 1.65417 22.6323 0.197449 21 0.197449H2.99995C1.36758 0.197449 0.199951 1.65417 0.199951 3.24745V16.7474C0.199951 18.3407 1.36758 19.7974 2.99995 19.7974H21C22.6323 19.7974 23.7999 18.3407 23.7999 16.7474V13.8475H23.85V6.14745H23.7999ZM16 9.94745C16 9.47801 16.3806 9.09745 16.85 9.09745H18.15C18.6194 9.09745 19 9.47801 19 9.94745C19 10.4169 18.6194 10.7975 18.15 10.7975H16.85C16.3806 10.7975 16 10.4169 16 9.94745ZM14.85 9.99745C14.85 8.81004 15.8126 7.84745 17 7.84745H22.15V12.1475H17C15.8126 12.1475 14.85 11.1849 14.85 9.99745Z" fill="white"/>
</svg>
